<!DOCTYPE svg PUBLIC "-//W3C//DTD SVG 1.1//EN" "http://www.w3.org/Graphics/SVG/1.1/DTD/svg11.dtd">
<!-- Uploaded to: SVG Repo, www.svgrepo.com, Transformed by: SVG Repo Mixer Tools -->
<svg height="800px" width="800px" version="1.1" id="Capa_1" xmlns="http://www.w3.org/2000/svg" xmlns:xlink="http://www.w3.org/1999/xlink" viewBox="0 0 502.664 502.664" xml:space="preserve" fill="#000000" stroke="#000000">
<g id="SVGRepo_bgCarrier" stroke-width="0"/>
<g id="SVGRepo_tracerCarrier" stroke-linecap="round" stroke-linejoin="round"/>
<g id="SVGRepo_iconCarrier"> <g> <g> <g> <path style="fill:#00d6e6;" d="M374.404,214.834l128.238-109.062V75.767H0v30.048l128.217,109.062 c4.314,3.581-81.753-50.044-128.217-79.014v291.033h502.664V135.842C456.179,164.812,370.133,218.437,374.404,214.834z M173.515,189.122c0-42.861,34.945-77.741,77.849-77.741c42.796,0,77.72,34.858,77.72,77.741v45.148h-29.315v-45.148 c0-26.705-21.765-48.534-48.362-48.534c-26.748,0-48.534,21.83-48.534,48.534v45.148h-29.336L173.515,189.122L173.515,189.122z M345.78,384.92H156.863V247.751H345.78V384.92z"/> <path style="fill:#00d6e6;" d="M241.981,309.012L237.99,348.4h26.597l-4.055-39.388c5.004-3.128,8.305-8.628,8.305-14.862 c0-9.707-7.873-17.537-17.472-17.537c-9.793,0-17.58,7.83-17.58,17.537C233.806,300.384,237.106,305.906,241.981,309.012z"/> </g> </g> <g> </g> <g> </g> <g> </g> <g> </g> <g> </g> <g> </g> <g> </g> <g> </g> <g> </g> <g> </g> <g> </g> <g> </g> <g> </g> <g> </g> <g> </g> </g> </g>
</svg>